<svg width="22" height="22" fill="none" xmlns="http://www.w3.org/2000/svg"><path d="M14 21.75H8c-1.32 0-2.42-.13-3.35-.41a.767.767 0 01-.54-.78c.25-2.99 3.28-5.34 6.89-5.34s6.63 2.34 6.89 5.34c.03.36-.19.68-.54.78-.93.28-2.03.41-3.35.41zm-8.28-1.69c.66.13 1.41.19 2.28.19h6c.87 0 1.62-.06 2.28-.19-.53-1.92-2.72-3.34-5.28-3.34s-4.75 1.42-5.28 3.34z" fill="#fff"/><path fill-rule="evenodd" clip-rule="evenodd" d="M2.095 2.095C3.429.76 5.426.25 8 .25h6c2.574 0 4.57.51 5.905 1.845C21.24 3.429 21.75 5.426 21.75 8v6c0 1.95-.291 3.564-1.01 4.813-.736 1.28-1.875 2.098-3.396 2.529a.75.75 0 01-.951-.659c-.177-2.092-2.4-3.963-5.392-3.963-2.993 0-5.217 1.87-5.394 3.963a.75.75 0 01-.951.659c-1.52-.43-2.66-1.25-3.396-2.53C.54 17.565.25 15.952.25 14V8c0-2.574.51-4.57 1.845-5.905zm1.06 1.06C2.24 4.071 1.75 5.574 1.75 8v6c0 1.83.279 3.14.81 4.065.393.683.948 1.195 1.725 1.55.744-2.606 3.574-4.395 6.716-4.395 3.141 0 5.97 1.789 6.714 4.396.777-.356 1.332-.868 1.725-1.551.531-.924.81-2.236.81-4.065V8c0-2.426-.49-3.93-1.405-4.845C17.929 2.24 16.426 1.75 14 1.75H8c-2.426 0-3.93.49-4.845 1.405zM11 6.75a2.826 2.826 0 00-2.83 2.83A2.835 2.835 0 0011 12.42a2.835 2.835 0 002.83-2.84A2.826 2.826 0 0011 6.75zM6.67 9.58A4.326 4.326 0 0111 5.25a4.326 4.326 0 014.33 4.33A4.335 4.335 0 0111 13.92a4.335 4.335 0 01-4.33-4.34z" fill="#fff"/><path d="M11 13.92a4.34 4.34 0 01-4.33-4.34c0-2.39 1.94-4.33 4.33-4.33s4.33 1.94 4.33 4.33A4.34 4.34 0 0111 13.92zm0-7.17a2.836 2.836 0 000 5.67 2.836 2.836 0 000-5.67z" fill="#fff"/></svg>